<svg width="19" height="19" viewBox="0 0 19 19" fill="none" xmlns="http://www.w3.org/2000/svg">
<path d="M12.6667 5.54167C12.6667 6.38152 12.3331 7.18697 11.7392 7.78084C11.1453 8.3747 10.3399 8.70833 9.50004 8.70833C8.66019 8.70833 7.85473 8.3747 7.26087 7.78084C6.667 7.18697 6.33337 6.38152 6.33337 5.54167C6.33337 4.70181 6.667 3.89636 7.26087 3.3025C7.85473 2.70863 8.66019 2.375 9.50004 2.375C10.3399 2.375 11.1453 2.70863 11.7392 3.3025C12.3331 3.89636 12.6667 4.70181 12.6667 5.54167V5.54167Z" stroke="white" stroke-width="1.5372" stroke-linecap="round" stroke-linejoin="round"/>
<path d="M9.50004 11.083C8.0303 11.083 6.62075 11.6669 5.58149 12.7061C4.54223 13.7454 3.95837 15.1549 3.95837 16.6247H15.0417C15.0417 15.1549 14.4579 13.7454 13.4186 12.7061C12.3793 11.6669 10.9698 11.083 9.50004 11.083V11.083Z" stroke="white" stroke-width="1.5372" stroke-linecap="round" stroke-linejoin="round"/>
</svg>
